<svg id="Слой_3" data-name="Слой 3" xmlns="http://www.w3.org/2000/svg" viewBox="0 0 80.83 67.32"><defs><style>.cls-1{fill:#444;}.cls-2{fill:none;stroke:#444;stroke-linecap:round;stroke-miterlimit:10;stroke-width:5.67px;}</style></defs><title>инфо</title><g id="инфо"><path class="cls-1" d="M317.53,539.57l-1-.05a3.3,3.3,0,0,1-3.18-3.53v-3.64l.07-5.27H310a10.07,10.07,0,0,1-6.76-2.8,9.72,9.72,0,0,1-2.37-3.93,9.34,9.34,0,0,1-.43-2.83V482.11a9.57,9.57,0,0,1,9.56-9.56h61.71a9.57,9.57,0,0,1,9.56,9.56v35.61a10,10,0,0,1-9.35,9.35H334.46l-11.37,8.37h0l-.62.46-1.89,1.4Zm-1.24-18.16h2.88l-.14,10,.06,0,13.51-9.94h39a4.47,4.47,0,0,0,2.59-1.13,4.55,4.55,0,0,0,1.41-2.88V482.11a3.89,3.89,0,0,0-3.89-3.89H310a3.89,3.89,0,0,0-3.89,3.89v35.41a3.84,3.84,0,0,0,1.14,2.75,4.28,4.28,0,0,0,2.83,1.14Z" transform="translate(-300.44 -472.55)"/><line class="cls-2" x1="15.75" y1="51.69" x2="15.75" y2="64.48"/><line class="cls-2" x1="33.02" y1="51.69" x2="15.75" y2="64.48"/><path class="cls-1" d="M338.38,484.35v-.23a2.48,2.48,0,0,1,2.47-2.47h0a2.48,2.48,0,0,1,2.48,2.47v.23a2.48,2.48,0,0,1-2.48,2.48h0A2.48,2.48,0,0,1,338.38,484.35Zm0,30.71V493.28a2.48,2.48,0,0,1,2.47-2.48h0a2.48,2.48,0,0,1,2.48,2.48v21.78a2.48,2.48,0,0,1-2.48,2.47h0A2.48,2.48,0,0,1,338.38,515.06Z" transform="translate(-300.44 -472.55)"/></g></svg>