<svg id="Слой_3" data-name="Слой 3" xmlns="http://www.w3.org/2000/svg" viewBox="0 0 80.83 67.32"><defs><style>.cls-1{fill:#444}</style></defs><g id="инфо"><path class="cls-1" d="M317.53 539.57l-1-.05a3.3 3.3 0 01-3.18-3.53v-3.64l.07-5.27H310a10.07 10.07 0 01-6.76-2.8 9.72 9.72 0 01-2.37-3.93 9.34 9.34 0 01-.43-2.83v-35.41a9.57 9.57 0 019.56-9.56h61.71a9.57 9.57 0 019.56 9.56v35.61a10 10 0 01-9.35 9.35h-37.46l-11.37 8.37-.62.46-1.89 1.4zm-1.24-18.16h2.88l-.14 10h.06l13.51-9.94h39a4.47 4.47 0 002.59-1.13 4.55 4.55 0 001.41-2.88v-35.35a3.89 3.89 0 00-3.89-3.89H310a3.89 3.89 0 00-3.89 3.89v35.41a3.84 3.84 0 001.14 2.75 4.28 4.28 0 002.83 1.14z" transform="translate(-300.44 -472.55)"/><path d="M15.75 51.69v12.79m17.27-12.79L15.75 64.48" fill="none" stroke="#444" stroke-linecap="round" stroke-miterlimit="10" stroke-width="5.67"/><path class="cls-1" d="M338.38 484.35v-.23a2.48 2.48 0 012.47-2.47 2.48 2.48 0 012.48 2.47v.23a2.48 2.48 0 01-2.48 2.48 2.48 2.48 0 01-2.47-2.48zm0 30.71v-21.78a2.48 2.48 0 012.47-2.48 2.48 2.48 0 012.48 2.48v21.78a2.48 2.48 0 01-2.48 2.47 2.48 2.48 0 01-2.47-2.47z" transform="translate(-300.44 -472.55)"/></g></svg>