<svg id="Слой_3" data-name="Слой 3" xmlns="http://www.w3.org/2000/svg" viewBox="0 0 80.76 80.76"><defs><style>.cls-1{fill:#444}</style></defs><g id="инста"><path class="cls-1" d="M257.9 270.71h-56.63a12.08 12.08 0 01-12.07-12.07V202a12.08 12.08 0 0112.07-12h56.63a12.08 12.08 0 0112.1 12v56.63a12.08 12.08 0 01-12.1 12.08zm-56.63-75.09a6.4 6.4 0 00-6.4 6.39v56.63a6.41 6.41 0 006.4 6.4h56.63a6.41 6.41 0 006.4-6.4V202a6.4 6.4 0 00-6.4-6.39z" transform="translate(-189.2 -189.95)"/><path class="cls-1" d="M228.33 252.64a22.31 22.31 0 1122.31-22.31 22.33 22.33 0 01-22.31 22.31zm0-38.95A16.64 16.64 0 10245 230.33a16.66 16.66 0 00-16.67-16.64z" transform="translate(-189.2 -189.95)"/><circle class="cls-1" cx="64.26" cy="16.62" r="4.29"/></g></svg>