<svg id="Слой_3" data-name="Слой 3" xmlns="http://www.w3.org/2000/svg" viewBox="0 0 80.83 54.53"><defs><style>.cls-1{fill:#444;}</style></defs><title>почта</title><g id="почта"><path class="cls-1" d="M143.7,393.36H82a9.57,9.57,0,0,1-9.56-9.56V348.4A9.57,9.57,0,0,1,82,338.84H143.7a9.56,9.56,0,0,1,9.56,9.56v35.4A9.57,9.57,0,0,1,143.7,393.36ZM82,344.5a3.9,3.9,0,0,0-3.89,3.9v35.4A3.89,3.89,0,0,0,82,387.69H143.7a3.9,3.9,0,0,0,3.9-3.89V348.4a3.91,3.91,0,0,0-3.9-3.9Z" transform="translate(-72.43 -338.84)"/><path class="cls-1" d="M111.66,368.93a2.76,2.76,0,0,1-1.53-.45L75.5,346.25a2.83,2.83,0,1,1,3.06-4.77l34.63,22.23a2.84,2.84,0,0,1-1.53,5.22Z" transform="translate(-72.43 -338.84)"/><path class="cls-1" d="M112.85,368.93a2.83,2.83,0,0,1-1.53-5.22L146,341.48a2.83,2.83,0,0,1,3.06,4.77l-34.63,22.23A2.8,2.8,0,0,1,112.85,368.93Z" transform="translate(-72.43 -338.84)"/></g></svg>