<svg id="Слой_3" data-name="Слой 3" xmlns="http://www.w3.org/2000/svg" viewBox="0 0 78.68 78.68"><defs><style>.cls-1{fill:#444}</style></defs><g id="телефон"><path class="cls-1" d="M250.19 404.44a2.64 2.64 0 01-.87-.14 91.44 91.44 0 01-59.17-59.17 2.83 2.83 0 115.39-1.74 85.81 85.81 0 0055.52 55.52 2.83 2.83 0 01-.87 5.53z" transform="translate(-190.01 -325.76)"/><path class="cls-1" d="M237.85 383a2.82 2.82 0 01-1.47-.41 72.53 72.53 0 01-24.48-24.48 2.84 2.84 0 014.85-2.94 66.94 66.94 0 0022.57 22.57 2.83 2.83 0 01-1.47 5.26zm-12.43-34.66a2.82 2.82 0 01-2-.83l-16.91-16.91a2.84 2.84 0 014-4l16.9 16.91a2.84 2.84 0 01-2 4.84zm40.44 40.43a2.81 2.81 0 01-2-.83L246.94 371a2.84 2.84 0 114-4l16.91 16.91a2.83 2.83 0 01-2 4.83z" transform="translate(-190.01 -325.76)"/><path class="cls-1" d="M237.85 383a2.79 2.79 0 01-2-.83 2.83 2.83 0 010-4L246.94 367a2.84 2.84 0 114 4l-11.09 11.09a2.81 2.81 0 01-2 .91zm-23.53-23.57a2.83 2.83 0 01-2-4.83l11.1-11.1a2.83 2.83 0 114 4l-11.09 11.1a2.81 2.81 0 01-2.01.83zm-21.47-12.34a2.83 2.83 0 01-2-4.83l15.67-15.67a2.84 2.84 0 014 4l-15.67 15.66a2.79 2.79 0 01-2 .84zm57.34 57.35a2.84 2.84 0 01-2-4.84l15.66-15.66a2.83 2.83 0 014 4l-15.65 15.67a2.86 2.86 0 01-2.01.83z" transform="translate(-190.01 -325.76)"/></g></svg>