<svg id="Слой_3" data-name="Слой 3" xmlns="http://www.w3.org/2000/svg" viewBox="0 0 42.06 81.55"><defs><style>.cls-1{fill:#444}</style></defs><g id="товары"><path class="cls-1" d="M130.85 490.48h-36.4a2.84 2.84 0 010-5.67h36.4a2.84 2.84 0 010 5.67zm-8.91-12.26h-18.59a2.84 2.84 0 010-5.67h18.59a2.84 2.84 0 110 5.67zm0 61.52h-18.59a2.84 2.84 0 010-5.67h18.59a2.84 2.84 0 110 5.67z" transform="translate(-91.62 -458.19)"/><path class="cls-1" d="M106.62 478.22a2.84 2.84 0 01-2.84-2.84v-8a2.84 2.84 0 015.67 0v8a2.84 2.84 0 01-2.83 2.84z" transform="translate(-91.62 -458.19)"/><path class="cls-1" d="M103.35 490.48a2.83 2.83 0 01-2.83-2.83v-12.27a2.84 2.84 0 015.67 0v12.27a2.84 2.84 0 01-2.84 2.83zm18.59 0a2.83 2.83 0 01-2.83-2.83v-12.27a2.84 2.84 0 015.67 0v12.27a2.84 2.84 0 01-2.84 2.83zm8.91 39.66a2.84 2.84 0 01-2.84-2.83v-39.66a2.84 2.84 0 115.67 0v39.66a2.83 2.83 0 01-2.83 2.83zm-36.4 0a2.83 2.83 0 01-2.83-2.83v-39.66a2.84 2.84 0 115.67 0v39.66a2.84 2.84 0 01-2.84 2.83z" transform="translate(-91.62 -458.19)"/><path class="cls-1" d="M118.88 478.22a2.84 2.84 0 01-2.84-2.84v-8a2.84 2.84 0 015.67 0v8a2.84 2.84 0 01-2.83 2.84z" transform="translate(-91.62 -458.19)"/><path class="cls-1" d="M118.88 470.21a2.85 2.85 0 01-2.52-1.53 7.48 7.48 0 00-1.36-1.87c-1.87-1.86-4.43-2.25-7.13-2.67a25.68 25.68 0 00-6.14-.17 2.84 2.84 0 01-.52-5.65 31 31 0 017.52.22c3.15.48 7.08 1.08 10.27 4.25a13.45 13.45 0 012.4 3.28 2.84 2.84 0 01-1.22 3.82 2.75 2.75 0 01-1.3.32z" transform="translate(-91.62 -458.19)"/><path class="cls-1" d="M106.62 470.21a2.82 2.82 0 01-2.19-1L99.29 463a2.83 2.83 0 114.37-3.61l5.14 6.23a2.84 2.84 0 01-2.18 4.64zm-3.27 69.53h-.29a12.75 12.75 0 01-7.75-3.74 13 13 0 01-3.69-8.64 2.83 2.83 0 115.66-.16 7.39 7.39 0 002 4.81 7.25 7.25 0 004.31 2 2.84 2.84 0 01-.29 5.66zm18.59 0a2.84 2.84 0 01-.28-5.66 7.25 7.25 0 004.31-2 7.36 7.36 0 002-4.81 2.84 2.84 0 115.67.16A13 13 0 01130 536a12.79 12.79 0 01-7.76 3.69z" transform="translate(-91.62 -458.19)"/></g></svg>