<svg id="Слой_3" data-name="Слой 3" xmlns="http://www.w3.org/2000/svg" viewBox="0 0 80.31 80.31"><defs><style>.cls-1{fill:#444;}</style></defs><title>поиск</title><g id="поиск"><path class="cls-1" d="M123.27,117.56a29.8,29.8,0,1,1,29.8-29.8A29.84,29.84,0,0,1,123.27,117.56Zm0-53.93A24.13,24.13,0,1,0,147.4,87.76,24.16,24.16,0,0,0,123.27,63.63Z" transform="translate(-72.76 -57.96)"/><path class="cls-1" d="M75.6,138.27a2.84,2.84,0,0,1-2-4.84l28.16-28.15a2.83,2.83,0,0,1,4,4L77.6,137.44A2.83,2.83,0,0,1,75.6,138.27Z" transform="translate(-72.76 -57.96)"/></g></svg>