<svg id="Слой_3" data-name="Слой 3" xmlns="http://www.w3.org/2000/svg" viewBox="0 0 80.31 65.34"><defs><style>.cls-1{fill:#444;}</style></defs><title>сортировка</title><g id="сортировка"><path class="cls-1" d="M134.6,663.76a2.84,2.84,0,0,1-2.83-2.84V601.25a2.84,2.84,0,0,1,5.67,0v59.67A2.84,2.84,0,0,1,134.6,663.76Z" transform="translate(-72.56 -598.42)"/><path class="cls-1" d="M134.6,663.76a2.81,2.81,0,0,1-2.06-.9l-15.43-16.41a2.84,2.84,0,1,1,4.13-3.89L136.67,659a2.83,2.83,0,0,1-2.07,4.78Z" transform="translate(-72.56 -598.42)"/><path class="cls-1" d="M134.6,663.76a2.83,2.83,0,0,1-2.06-4.78L148,642.56a2.84,2.84,0,0,1,4.13,3.89l-15.43,16.41A2.81,2.81,0,0,1,134.6,663.76Z" transform="translate(-72.56 -598.42)"/><path class="cls-1" d="M112.66,663.76H75.4a2.84,2.84,0,1,1,0-5.67h37.26a2.84,2.84,0,0,1,0,5.67Z" transform="translate(-72.56 -598.42)"/><path class="cls-1" d="M104.8,651.82H75.4a2.84,2.84,0,1,1,0-5.67h29.4a2.84,2.84,0,1,1,0,5.67Z" transform="translate(-72.56 -598.42)"/><path class="cls-1" d="M99.13,639.89H75.4a2.84,2.84,0,1,1,0-5.67H99.13a2.84,2.84,0,1,1,0,5.67Z" transform="translate(-72.56 -598.42)"/><path class="cls-1" d="M92.8,628H75.4a2.84,2.84,0,1,1,0-5.67H92.8a2.84,2.84,0,1,1,0,5.67Z" transform="translate(-72.56 -598.42)"/><path class="cls-1" d="M87.26,616H75.4a2.84,2.84,0,1,1,0-5.67H87.26a2.84,2.84,0,1,1,0,5.67Z" transform="translate(-72.56 -598.42)"/><path class="cls-1" d="M82.78,604.09H75.4a2.84,2.84,0,1,1,0-5.67h7.38a2.84,2.84,0,0,1,0,5.67Z" transform="translate(-72.56 -598.42)"/></g></svg>