<svg xmlns="http://www.w3.org/2000/svg" viewBox="0 0 80.83 80.83"><defs></defs><title>vk</title><g><path class="cls-1" d="M141.2,270.78H84.5a12.08,12.08,0,0,1-12.07-12.07V202A12.08,12.08,0,0,1,84.5,190h56.7A12.07,12.07,0,0,1,153.26,202v56.7A12.08,12.08,0,0,1,141.2,270.78ZM84.5,195.62A6.4,6.4,0,0,0,78.1,202v56.7a6.41,6.41,0,0,0,6.4,6.4h56.7a6.41,6.41,0,0,0,6.4-6.4V202a6.4,6.4,0,0,0-6.4-6.39Z" transform="translate(-72.43 -189.95)"/><path class="cls-1" d="M115.11,245.22h-7.32a1.4,1.4,0,0,1-1.4-1.4V219.66a2.21,2.21,0,0,0-.29-1.2c-.59-1-1.76-.91-2.39-1.93a2.31,2.31,0,0,1-.34-1l3,0h8.72a1.4,1.4,0,0,1,1.4,1.4v26.89A1.4,1.4,0,0,1,115.11,245.22Z" transform="translate(-72.43 -189.95)"/><path class="cls-1" d="M115.8,241.22l-6.84,4h-3.1a58,58,0,0,1-20.57-28.69h9.25a41.34,41.34,0,0,0,21.26,24.69Z" transform="translate(-72.43 -189.95)"/><path class="cls-1" d="M116.51,230.37v8.39a18.63,18.63,0,0,1,8.16,2.2,18.35,18.35,0,0,1,5.28,4.26h10.46a24,24,0,0,0-3.6-5.33,24.63,24.63,0,0,0-9.31-6.47,27.1,27.1,0,0,0,10-16.89h-9.25a21.51,21.51,0,0,1-8.15,11.91A18.42,18.42,0,0,1,116.51,230.37Z" transform="translate(-72.43 -189.95)"/></g></svg>
