<svg xmlns="http://www.w3.org/2000/svg" viewBox="0 0 80.83 80.83"><path class="cls-1" d="M68.77 80.83h-56.7A12.08 12.08 0 010 68.76V12.05a12.08 12.08 0 0112.07-12h56.7a12.07 12.07 0 0112.06 12v56.7a12.08 12.08 0 01-12.06 12.08zM12.07 5.67a6.4 6.4 0 00-6.4 6.38v56.7a6.41 6.41 0 006.4 6.4h56.7a6.41 6.41 0 006.4-6.4v-56.7a6.4 6.4 0 00-6.4-6.39z"/><path class="cls-1" d="M42.68 55.27h-7.32a1.4 1.4 0 01-1.4-1.4V29.71a2.21 2.21 0 00-.29-1.2c-.59-1-1.76-.91-2.39-1.93a2.31 2.31 0 01-.34-1h11.72a1.4 1.4 0 011.4 1.4v26.89a1.4 1.4 0 01-1.38 1.4z"/><path class="cls-1" d="M43.37 51.27l-6.84 4h-3.1a58 58 0 01-20.57-28.69h9.25a41.34 41.34 0 0021.26 24.69zm.71-10.85v8.39a18.63 18.63 0 018.16 2.2 18.35 18.35 0 015.28 4.26h10.46a24 24 0 00-3.6-5.33 24.63 24.63 0 00-9.31-6.47 27.1 27.1 0 0010-16.89h-9.25a21.51 21.51 0 01-8.15 11.91 18.42 18.42 0 01-3.59 1.93z"/></svg>