<svg id="Слой_3" data-name="Слой 3" xmlns="http://www.w3.org/2000/svg" viewBox="0 0 69.89 81.1"><defs><style>.cls-1{fill:#444;}.cls-2{fill:#fff;}</style></defs><title>ютуб</title><g id="ютуб"><path class="cls-1" d="M323.74,220.14V209.52l-6.49-19.46h3.89l4.61,14.52,4.53-14.52h3.93l-6.46,19.46v10.62Z" transform="translate(-305.67 -190.06)"/><path class="cls-1" d="M341.83,220.43a6.42,6.42,0,0,1-3.75-1,5.17,5.17,0,0,1-1.95-2.75,13.53,13.53,0,0,1-.58-4.2v-6.23a13.53,13.53,0,0,1,.58-4.2,5.17,5.17,0,0,1,1.95-2.75,7.77,7.77,0,0,1,7.48,0,5.3,5.3,0,0,1,1.93,2.75,13.85,13.85,0,0,1,.57,4.2v6.23a13.85,13.85,0,0,1-.57,4.2,5.3,5.3,0,0,1-1.93,2.75A6.38,6.38,0,0,1,341.83,220.43Zm0-2.93a1.82,1.82,0,0,0,1.61-.67,3.53,3.53,0,0,0,.56-1.76c.06-.73.09-1.49.09-2.29v-6.72c0-.81,0-1.58-.09-2.3a3.59,3.59,0,0,0-.56-1.76,1.8,1.8,0,0,0-1.61-.69,1.86,1.86,0,0,0-1.64.69,3.5,3.5,0,0,0-.57,1.76c-.07.72-.1,1.49-.1,2.3v6.72c0,.8,0,1.56.1,2.29a3.43,3.43,0,0,0,.57,1.76A1.88,1.88,0,0,0,341.83,217.5Z" transform="translate(-305.67 -190.06)"/><path class="cls-1" d="M354.78,220.43a2.71,2.71,0,0,1-2-.67,3.57,3.57,0,0,1-1-1.67,7.84,7.84,0,0,1-.28-2V198.67h4v16.19a4,4,0,0,0,.33,1.8,1.38,1.38,0,0,0,1.37.65,2.94,2.94,0,0,0,1.4-.39A8.71,8.71,0,0,0,360,216V198.67h4v21.47h-4V218a10.4,10.4,0,0,1-2.36,1.71A6,6,0,0,1,354.78,220.43Z" transform="translate(-305.67 -190.06)"/><rect class="cls-1" y="35.11" width="69.89" height="45.99" rx="8.64"/><path class="cls-2" d="M316.47,262.1V236.86h-4.76v-2.92H325v2.92H320.4V262.1Z" transform="translate(-305.67 -190.06)"/><path class="cls-2" d="M330.31,262.38a2.59,2.59,0,0,1-1.84-.62,3.32,3.32,0,0,1-.92-1.57,6.82,6.82,0,0,1-.26-1.91V242H331v15.16a3.67,3.67,0,0,0,.31,1.68,1.3,1.3,0,0,0,1.28.61,2.79,2.79,0,0,0,1.31-.36,7.89,7.89,0,0,0,1.3-.89V242h3.72V262.1h-3.72v-2a9.61,9.61,0,0,1-2.21,1.6A5.61,5.61,0,0,1,330.31,262.38Z" transform="translate(-305.67 -190.06)"/><path class="cls-2" d="M349.92,262.38a3.53,3.53,0,0,1-1.93-.54,7.75,7.75,0,0,1-1.48-1.2v1.46h-3.72V233.94h3.72v9.67a6.57,6.57,0,0,1,1.58-1.32,4.13,4.13,0,0,1,2.21-.56,3.61,3.61,0,0,1,2.49.82,5,5,0,0,1,1.37,2,10.45,10.45,0,0,1,.59,2.5,21.23,21.23,0,0,1,.14,2.17v4.87a18.56,18.56,0,0,1-.42,4,6.38,6.38,0,0,1-1.49,3.06A4,4,0,0,1,349.92,262.38Zm-.77-2.92a1.51,1.51,0,0,0,1.4-.71,4.78,4.78,0,0,0,.52-1.93c.07-.81.1-1.7.1-2.68v-4.87A18.38,18.38,0,0,0,351,247a3.58,3.58,0,0,0-.59-1.68,1.64,1.64,0,0,0-1.43-.63,3.09,3.09,0,0,0-1.37.31,6.2,6.2,0,0,0-1.13.7v12.9a4.49,4.49,0,0,0,1.17.64A4.13,4.13,0,0,0,349.15,259.46Z" transform="translate(-305.67 -190.06)"/><path class="cls-2" d="M363.83,262.38a6.21,6.21,0,0,1-3.65-.92,4.75,4.75,0,0,1-1.79-2.71,16.31,16.31,0,0,1-.51-4.4v-4.59a16.36,16.36,0,0,1,.52-4.45,4.81,4.81,0,0,1,1.83-2.68,6.26,6.26,0,0,1,3.6-.9,5.59,5.59,0,0,1,3.73,1,5.19,5.19,0,0,1,1.59,3,25.47,25.47,0,0,1,.38,4.71v1.64H361.6v4a7.17,7.17,0,0,0,.23,2,2,2,0,0,0,.73,1.13,2.18,2.18,0,0,0,1.3.37,1.84,1.84,0,0,0,1.27-.4,2.07,2.07,0,0,0,.59-1.15,8.32,8.32,0,0,0,.16-1.76v-1.21h3.61v.76a7.89,7.89,0,0,1-1.28,4.76Q366.92,262.38,363.83,262.38Zm-2.23-12.27h4.28V248.3a13.6,13.6,0,0,0-.14-2.1,2.28,2.28,0,0,0-.57-1.29,1.9,1.9,0,0,0-1.38-.43,2,2,0,0,0-1.37.41,2.38,2.38,0,0,0-.64,1.41,16.08,16.08,0,0,0-.18,2.73Z" transform="translate(-305.67 -190.06)"/></g></svg>