<svg id="Слой_3" data-name="Слой 3" xmlns="http://www.w3.org/2000/svg" viewBox="0 0 69.89 81.1"><defs><style>.cls-1{fill:#444}</style></defs><g id="ютуб"><path class="cls-1" d="M323.74 220.14v-10.62l-6.49-19.46h3.89l4.61 14.52 4.53-14.52h3.93l-6.46 19.46v10.62zm18.09.29a6.42 6.42 0 01-3.75-1 5.17 5.17 0 01-1.95-2.75 13.53 13.53 0 01-.58-4.2v-6.23a13.53 13.53 0 01.58-4.2 5.17 5.17 0 011.95-2.75 7.77 7.77 0 017.48 0 5.3 5.3 0 011.93 2.75 13.85 13.85 0 01.57 4.2v6.23a13.85 13.85 0 01-.57 4.2 5.3 5.3 0 01-1.93 2.75 6.38 6.38 0 01-3.73 1zm0-2.93a1.82 1.82 0 001.61-.67 3.53 3.53 0 00.56-1.76c.06-.73.09-1.49.09-2.29v-6.72c0-.81 0-1.58-.09-2.3a3.59 3.59 0 00-.56-1.76 1.8 1.8 0 00-1.61-.69 1.86 1.86 0 00-1.64.69 3.5 3.5 0 00-.57 1.76c-.07.72-.1 1.49-.1 2.3v6.72c0 .8 0 1.56.1 2.29a3.43 3.43 0 00.57 1.76 1.88 1.88 0 001.64.67zm12.95 2.93a2.71 2.71 0 01-2-.67 3.57 3.57 0 01-1-1.67 7.84 7.84 0 01-.28-2v-17.42h4v16.19a4 4 0 00.33 1.8 1.38 1.38 0 001.37.65 2.94 2.94 0 001.4-.39 8.71 8.71 0 001.4-.92v-17.33h4v21.47h-4V218a10.4 10.4 0 01-2.36 1.71 6 6 0 01-2.86.72zm10.39 24.48a1.9 1.9 0 00-1.38-.43 2 2 0 00-1.37.41 2.38 2.38 0 00-.64 1.41 16.08 16.08 0 00-.18 2.73v1.08h4.28v-1.81a13.6 13.6 0 00-.14-2.1 2.28 2.28 0 00-.57-1.29z" transform="translate(-305.67 -190.06)"/><path class="cls-1" d="M366.93 225.16h-52.62a8.64 8.64 0 00-8.64 8.64v28.72a8.64 8.64 0 008.64 8.64h52.62a8.63 8.63 0 008.63-8.64V233.8a8.63 8.63 0 00-8.63-8.64zM325 236.86h-4.6v25.24h-3.93v-25.24h-4.76v-2.92H325zm13.9 25.24h-3.72v-2a9.61 9.61 0 01-2.21 1.6 5.61 5.61 0 01-2.69.66 2.59 2.59 0 01-1.84-.62 3.32 3.32 0 01-.92-1.57 6.82 6.82 0 01-.26-1.91V242H331v15.16a3.67 3.67 0 00.31 1.68 1.3 1.3 0 001.28.61 2.79 2.79 0 001.31-.36 7.89 7.89 0 001.3-.89V242h3.72zm16-8a18.56 18.56 0 01-.42 4 6.38 6.38 0 01-1.49 3.06 4 4 0 01-3.06 1.16 3.53 3.53 0 01-1.93-.54 7.75 7.75 0 01-1.48-1.2v1.46h-3.72v-28.1h3.72v9.67a6.57 6.57 0 011.58-1.32 4.13 4.13 0 012.21-.56 3.61 3.61 0 012.49.82 5 5 0 011.37 2 10.45 10.45 0 01.59 2.5 21.23 21.23 0 01.14 2.17zm14.64-2h-7.94v4a7.17 7.17 0 00.23 2 2 2 0 00.73 1.13 2.18 2.18 0 001.3.37 1.84 1.84 0 001.27-.4 2.07 2.07 0 00.59-1.15 8.32 8.32 0 00.16-1.76v-1.21h3.61v.76a7.89 7.89 0 01-1.28 4.76q-1.29 1.74-4.38 1.74a6.21 6.21 0 01-3.65-.92 4.75 4.75 0 01-1.79-2.71 16.31 16.31 0 01-.51-4.4v-4.59a16.36 16.36 0 01.52-4.45 4.81 4.81 0 011.83-2.68 6.26 6.26 0 013.6-.9 5.59 5.59 0 013.73 1 5.19 5.19 0 011.59 3 25.47 25.47 0 01.38 4.71z" transform="translate(-305.67 -190.06)"/><path class="cls-1" d="M350.44 245.28a1.64 1.64 0 00-1.43-.63 3.09 3.09 0 00-1.37.31 6.2 6.2 0 00-1.13.7v12.9a4.49 4.49 0 001.17.64 4.13 4.13 0 001.47.26 1.51 1.51 0 001.4-.71 4.78 4.78 0 00.52-1.93c.07-.81.1-1.7.1-2.68v-4.87A18.38 18.38 0 00351 247a3.58 3.58 0 00-.56-1.72z" transform="translate(-305.67 -190.06)"/></g></svg>