<svg id="Слой_3" data-name="Слой 3" xmlns="http://www.w3.org/2000/svg" viewBox="0 0 78.78 75.69"><defs><style>.cls-1{fill:#444;}</style></defs><title>корзина</title><g id="корзина"><path class="cls-1" d="M428.14,68.48H415.22a2.84,2.84,0,1,1,0-5.67h12.92a2.84,2.84,0,1,1,0,5.67Z" transform="translate(-412.38 -62.81)"/><path class="cls-1" d="M481.28,117.63h-42a2.84,2.84,0,0,1,0-5.67h42a2.84,2.84,0,1,1,0,5.67Z" transform="translate(-412.38 -62.81)"/><path class="cls-1" d="M488.33,85.19H439.25a2.84,2.84,0,0,1,0-5.67h49.08a2.84,2.84,0,1,1,0,5.67Z" transform="translate(-412.38 -62.81)"/><path class="cls-1" d="M438.82,117.63a2.85,2.85,0,0,1-2.77-2.24L425.37,66.25A2.84,2.84,0,1,1,430.91,65l10.68,49.15a2.82,2.82,0,0,1-2.16,3.37A3.26,3.26,0,0,1,438.82,117.63Z" transform="translate(-412.38 -62.81)"/><path class="cls-1" d="M481.28,117.63a3.07,3.07,0,0,1-.6-.07,2.83,2.83,0,0,1-2.17-3.37l7.05-32.44A2.83,2.83,0,1,1,491.1,83l-7.05,32.44A2.84,2.84,0,0,1,481.28,117.63Z" transform="translate(-412.38 -62.81)"/><path class="cls-1" d="M441.82,138.5a9.92,9.92,0,1,1,9.92-9.92A9.93,9.93,0,0,1,441.82,138.5Zm0-14.17a4.25,4.25,0,1,0,4.25,4.25A4.26,4.26,0,0,0,441.82,124.33Z" transform="translate(-412.38 -62.81)"/><path class="cls-1" d="M477.72,138.5a9.92,9.92,0,1,1,9.92-9.92A9.94,9.94,0,0,1,477.72,138.5Zm0-14.17a4.25,4.25,0,1,0,4.25,4.25A4.26,4.26,0,0,0,477.72,124.33Z" transform="translate(-412.38 -62.81)"/></g></svg>