<svg id="Слой_3" data-name="Слой 3" xmlns="http://www.w3.org/2000/svg" viewBox="0 0 53.55 78.72"><defs></defs><title>гео</title><g id="гео"><path class="cls-1" d="M364.79,353.89a2.83,2.83,0,0,1-2.83-2.77,21.23,21.23,0,0,0-21.11-20.66h-.05a21.26,21.26,0,0,0-21.05,20.66,2.8,2.8,0,0,1-2.89,2.77,2.84,2.84,0,0,1-2.77-2.9,27,27,0,0,1,26.69-26.2h.07A26.94,26.94,0,0,1,367.62,351a2.84,2.84,0,0,1-2.77,2.9Z" transform="translate(-314.09 -324.79)"/><path class="cls-1" d="M340.91,403.52a2.79,2.79,0,0,1-1.94-.78c-15.11-14.25-23.66-30.47-24.72-46.89-.11-1.61-.14-3.24-.11-4.86a2.84,2.84,0,0,1,2.84-2.77H317a2.82,2.82,0,0,1,2.77,2.89c0,1.46,0,2.93.1,4.37,1,15,8.9,29.89,22.95,43.14a2.83,2.83,0,0,1,.11,4A2.8,2.8,0,0,1,340.91,403.52Z" transform="translate(-314.09 -324.79)"/><path class="cls-1" d="M340.86,403.52a2.84,2.84,0,0,1-1.95-4.9c14-13.25,22-28.17,22.95-43.14.1-1.45.13-2.92.1-4.37a2.83,2.83,0,1,1,5.66-.12c0,1.61,0,3.24-.1,4.86-1.07,16.42-9.61,32.64-24.72,46.89A2.82,2.82,0,0,1,340.86,403.52Z" transform="translate(-314.09 -324.79)"/><circle class="cls-1" cx="26.77" cy="27.02" r="6.18"/></g></svg>
