<svg id="Слой_3" data-name="Слой 3" xmlns="http://www.w3.org/2000/svg" viewBox="0 0 77.61 77.61"><defs><style>.cls-1{fill:#444;}</style></defs><title>помощь</title><g id="помощь"><path class="cls-1" d="M229.35,538.39a38.81,38.81,0,1,1,38.81-38.8A38.84,38.84,0,0,1,229.35,538.39Zm0-71.94a33.14,33.14,0,1,0,33.14,33.14A33.17,33.17,0,0,0,229.35,466.45Z" transform="translate(-190.55 -460.78)"/><path class="cls-1" d="M225.28,507.57V504a1.52,1.52,0,0,1,.51-1.13q2-1.82,3.68-3.62a18,18,0,0,0,3-4.31,11.09,11.09,0,0,0,1.11-5,5.68,5.68,0,0,0-1.13-3.61,4,4,0,0,0-3.31-1.43,4,4,0,0,0-2.94,1.06,3.68,3.68,0,0,0-1.09,2.73,6.91,6.91,0,0,0,.1,1.14c.06.35.14.75.23,1.18l-3.22.61a1.52,1.52,0,0,1-1.78-1.18h0a8.46,8.46,0,0,1-.14-1.46,8.19,8.19,0,0,1,2.32-6,8.78,8.78,0,0,1,6.52-2.33,9.22,9.22,0,0,1,6.85,2.47,9.56,9.56,0,0,1,2.45,7,13,13,0,0,1-1.16,5.6,17.63,17.63,0,0,1-3.14,4.63c-1.18,1.26-2.49,2.51-3.91,3.75a1.51,1.51,0,0,0-.53,1.15v2.27a1.53,1.53,0,0,1-1.53,1.53H226.8A1.52,1.52,0,0,1,225.28,507.57Zm-.23,9.4v-2a1.52,1.52,0,0,1,1.52-1.53h1.9a1.52,1.52,0,0,1,1.53,1.53v2a1.52,1.52,0,0,1-1.53,1.52h-1.9A1.52,1.52,0,0,1,225.05,517Z" transform="translate(-190.55 -460.78)"/></g></svg>