<svg id="Слой_3" data-name="Слой 3" xmlns="http://www.w3.org/2000/svg" viewBox="0 0 78.68 78.68"><defs><style>.cls-1{fill:#444;}</style></defs><title>телефон</title><g id="телефон"><path class="cls-1" d="M250.19,404.44a2.64,2.64,0,0,1-.87-.14,91.44,91.44,0,0,1-59.17-59.17,2.83,2.83,0,1,1,5.39-1.74,85.81,85.81,0,0,0,55.52,55.52,2.83,2.83,0,0,1-.87,5.53Z" transform="translate(-190.01 -325.76)"/><path class="cls-1" d="M237.85,383a2.82,2.82,0,0,1-1.47-.41,72.53,72.53,0,0,1-24.48-24.48,2.84,2.84,0,0,1,4.85-2.94,66.94,66.94,0,0,0,22.57,22.57,2.83,2.83,0,0,1-1.47,5.26Z" transform="translate(-190.01 -325.76)"/><path class="cls-1" d="M225.42,348.34a2.82,2.82,0,0,1-2-.83L206.51,330.6a2.84,2.84,0,0,1,4-4l16.9,16.91a2.84,2.84,0,0,1-2,4.84Z" transform="translate(-190.01 -325.76)"/><path class="cls-1" d="M265.86,388.77a2.81,2.81,0,0,1-2-.83L246.94,371a2.84,2.84,0,1,1,4-4l16.91,16.91a2.83,2.83,0,0,1-2,4.83Z" transform="translate(-190.01 -325.76)"/><path class="cls-1" d="M237.85,383a2.79,2.79,0,0,1-2-.83,2.83,2.83,0,0,1,0-4L246.94,367a2.84,2.84,0,1,1,4,4l-11.09,11.09A2.81,2.81,0,0,1,237.85,383Z" transform="translate(-190.01 -325.76)"/><path class="cls-1" d="M214.32,359.43a2.83,2.83,0,0,1-2-4.83l11.1-11.1a2.83,2.83,0,1,1,4,4L216.33,358.6A2.81,2.81,0,0,1,214.32,359.43Z" transform="translate(-190.01 -325.76)"/><path class="cls-1" d="M192.85,347.09a2.83,2.83,0,0,1-2-4.83l15.67-15.67a2.84,2.84,0,0,1,4,4l-15.67,15.66A2.79,2.79,0,0,1,192.85,347.09Z" transform="translate(-190.01 -325.76)"/><path class="cls-1" d="M250.19,404.44a2.84,2.84,0,0,1-2-4.84l15.66-15.66a2.83,2.83,0,0,1,4,4L252.2,403.61A2.86,2.86,0,0,1,250.19,404.44Z" transform="translate(-190.01 -325.76)"/></g></svg>