<svg id="Слой_3" data-name="Слой 3" xmlns="http://www.w3.org/2000/svg" viewBox="0 0 42.06 81.55"><defs><style>.cls-1{fill:#444;}</style></defs><title>товары</title><g id="товары"><path class="cls-1" d="M130.85,490.48H94.45a2.84,2.84,0,0,1,0-5.67h36.4a2.84,2.84,0,0,1,0,5.67Z" transform="translate(-91.62 -458.19)"/><path class="cls-1" d="M121.94,478.22H103.35a2.84,2.84,0,0,1,0-5.67h18.59a2.84,2.84,0,1,1,0,5.67Z" transform="translate(-91.62 -458.19)"/><path class="cls-1" d="M121.94,539.74H103.35a2.84,2.84,0,0,1,0-5.67h18.59a2.84,2.84,0,1,1,0,5.67Z" transform="translate(-91.62 -458.19)"/><path class="cls-1" d="M106.62,478.22a2.84,2.84,0,0,1-2.84-2.84v-8a2.84,2.84,0,0,1,5.67,0v8A2.84,2.84,0,0,1,106.62,478.22Z" transform="translate(-91.62 -458.19)"/><path class="cls-1" d="M103.35,490.48a2.83,2.83,0,0,1-2.83-2.83V475.38a2.84,2.84,0,0,1,5.67,0v12.27A2.84,2.84,0,0,1,103.35,490.48Z" transform="translate(-91.62 -458.19)"/><path class="cls-1" d="M121.94,490.48a2.83,2.83,0,0,1-2.83-2.83V475.38a2.84,2.84,0,0,1,5.67,0v12.27A2.84,2.84,0,0,1,121.94,490.48Z" transform="translate(-91.62 -458.19)"/><path class="cls-1" d="M130.85,530.14a2.84,2.84,0,0,1-2.84-2.83V487.65a2.84,2.84,0,1,1,5.67,0v39.66A2.83,2.83,0,0,1,130.85,530.14Z" transform="translate(-91.62 -458.19)"/><path class="cls-1" d="M94.45,530.14a2.83,2.83,0,0,1-2.83-2.83V487.65a2.84,2.84,0,1,1,5.67,0v39.66A2.84,2.84,0,0,1,94.45,530.14Z" transform="translate(-91.62 -458.19)"/><path class="cls-1" d="M118.88,478.22a2.84,2.84,0,0,1-2.84-2.84v-8a2.84,2.84,0,0,1,5.67,0v8A2.84,2.84,0,0,1,118.88,478.22Z" transform="translate(-91.62 -458.19)"/><path class="cls-1" d="M118.88,470.21a2.85,2.85,0,0,1-2.52-1.53,7.48,7.48,0,0,0-1.36-1.87c-1.87-1.86-4.43-2.25-7.13-2.67a25.68,25.68,0,0,0-6.14-.17,2.84,2.84,0,0,1-.52-5.65,31,31,0,0,1,7.52.22c3.15.48,7.08,1.08,10.27,4.25a13.45,13.45,0,0,1,2.4,3.28,2.84,2.84,0,0,1-1.22,3.82A2.75,2.75,0,0,1,118.88,470.21Z" transform="translate(-91.62 -458.19)"/><path class="cls-1" d="M106.62,470.21a2.82,2.82,0,0,1-2.19-1L99.29,463a2.83,2.83,0,1,1,4.37-3.61l5.14,6.23a2.84,2.84,0,0,1-2.18,4.64Z" transform="translate(-91.62 -458.19)"/><path class="cls-1" d="M103.35,539.74l-.29,0A12.75,12.75,0,0,1,95.31,536a13,13,0,0,1-3.69-8.64,2.83,2.83,0,1,1,5.66-.16,7.39,7.39,0,0,0,2,4.81,7.25,7.25,0,0,0,4.31,2,2.84,2.84,0,0,1-.29,5.66Z" transform="translate(-91.62 -458.19)"/><path class="cls-1" d="M121.94,539.74a2.84,2.84,0,0,1-.28-5.66,7.25,7.25,0,0,0,4.31-2,7.36,7.36,0,0,0,2-4.81,2.84,2.84,0,1,1,5.67.16A13,13,0,0,1,130,536a12.79,12.79,0,0,1-7.76,3.69Z" transform="translate(-91.62 -458.19)"/></g></svg>