<?xml version="1.0" encoding="utf-8"?><svg id="bСлой_3" data-name="Слой 3" xmlns="http://www.w3.org/2000/svg" viewBox="0 0 78.78 75.69" width="78.78" height="75.69"><defs><style>.bcls-1{fill:#444}</style></defs><g id="bкорзина"><path class="bcls-1" d="M428.14 68.48h-12.92a2.84 2.84 0 110-5.67h12.92a2.84 2.84 0 110 5.67zM481.28 117.63h-42a2.84 2.84 0 010-5.67h42a2.84 2.84 0 110 5.67zM488.33 85.19h-49.08a2.84 2.84 0 010-5.67h49.08a2.84 2.84 0 110 5.67z" transform="translate(-412.38 -62.81)"/><path class="bcls-1" d="M438.82 117.63a2.85 2.85 0 01-2.77-2.24l-10.68-49.14a2.84 2.84 0 115.54-1.25l10.68 49.15a2.82 2.82 0 01-2.16 3.37 3.26 3.26 0 01-.61.11zM481.28 117.63a3.07 3.07 0 01-.6-.07 2.83 2.83 0 01-2.17-3.37l7.05-32.44A2.83 2.83 0 11491.1 83l-7.05 32.44a2.84 2.84 0 01-2.77 2.19zM441.82 138.5a9.92 9.92 0 119.92-9.92 9.93 9.93 0 01-9.92 9.92zm0-14.17a4.25 4.25 0 104.25 4.25 4.26 4.26 0 00-4.25-4.25zM477.72 138.5a9.92 9.92 0 119.92-9.92 9.94 9.94 0 01-9.92 9.92zm0-14.17a4.25 4.25 0 104.25 4.25 4.26 4.26 0 00-4.25-4.25z" transform="translate(-412.38 -62.81)"/></g></svg>