<?xml version="1.0" encoding="utf-8"?><svg data-name="Слой 3" xmlns="http://www.w3.org/2000/svg" viewBox="0 0 53.55 78.72" width="53.55" height="78.72"><path class="bcls-1" d="M50.7 29.1a2.83 2.83 0 01-2.83-2.77A21.23 21.23 0 0026.76 5.67h-.05A21.26 21.26 0 005.66 26.33a2.8 2.8 0 01-2.89 2.77A2.84 2.84 0 010 26.2 27 27 0 0126.69 0h.07a26.94 26.94 0 0126.77 26.21 2.84 2.84 0 01-2.77 2.9z"/><path class="bcls-1" d="M26.82 78.73a2.79 2.79 0 01-1.94-.78C9.77 63.7 1.22 47.48.16 31.06.05 29.45.02 27.82.05 26.2a2.84 2.84 0 012.84-2.77h.02a2.82 2.82 0 012.77 2.89c0 1.46 0 2.93.1 4.37 1 15 8.9 29.89 22.95 43.14a2.83 2.83 0 01.11 4 2.8 2.8 0 01-2.02.9z"/><path class="bcls-1" d="M26.77 78.73a2.84 2.84 0 01-1.95-4.9c14-13.25 22-28.17 22.95-43.14.1-1.45.13-2.92.1-4.37a2.83 2.83 0 115.66-.12c0 1.61 0 3.24-.1 4.86-1.07 16.42-9.61 32.64-24.72 46.89a2.82 2.82 0 01-1.94.78z"/><circle class="bcls-1" cx="26.77" cy="27.02" r="6.18"/></svg>