<?xml version="1.0" encoding="utf-8"?><svg data-name="Слой 3" xmlns="http://www.w3.org/2000/svg" viewBox="0 0 77.98 73.94" width="77.98" height="73.94"><path class="ccls-1" d="M38.98 73.94a2.82 2.82 0 01-1.49-.43 93.28 93.28 0 01-15.11-11.7c-8.15-7.78-25.11-24-22-42.47C1 15.64 3.31 6.56 11.27 2.28 20.17-2.51 32.41.42 41.04 9.4a2.84 2.84 0 11-4.09 3.93c-6.87-7.15-16.33-9.64-23-6.06-5.75 3.09-7.49 10.13-8 13C3.35 35.81 18.84 50.6 26.29 57.7a87.36 87.36 0 0014.18 11 2.84 2.84 0 01-1.5 5.25z"/><path class="ccls-1" d="M38.99 73.94a2.84 2.84 0 01-1.5-5.25 87.36 87.36 0 0014.18-11c7.45-7.1 22.94-21.89 20.34-37.43-.49-2.88-2.23-9.92-8-13-6.67-3.58-16.13-1.09-23 6.06a2.84 2.84 0 01-4.09-3.93c8.63-9 20.87-11.91 29.77-7.12 8 4.28 10.27 13.36 10.89 17.06 3.1 18.51-13.86 34.69-22 42.47a93.28 93.28 0 01-15.11 11.7 2.82 2.82 0 01-1.48.44z"/></svg>