<?xml version="1.0" encoding="utf-8"?><svg id="eСлой_3" data-name="Слой 3" xmlns="http://www.w3.org/2000/svg" viewBox="0 0 77.61 77.61" width="77.61" height="77.61"><defs><style>.ecls-1{fill:#444}</style></defs><g id="eпомощь"><path class="ecls-1" d="M229.35 538.39a38.81 38.81 0 1138.81-38.8 38.84 38.84 0 01-38.81 38.8zm0-71.94a33.14 33.14 0 1033.14 33.14 33.17 33.17 0 00-33.14-33.14z" transform="translate(-190.55 -460.78)"/><path class="ecls-1" d="M225.28 507.57V504a1.52 1.52 0 01.51-1.13q2-1.82 3.68-3.62a18 18 0 003-4.31 11.09 11.09 0 001.11-5 5.68 5.68 0 00-1.13-3.61 4 4 0 00-3.31-1.43 4 4 0 00-2.94 1.06 3.68 3.68 0 00-1.09 2.73 6.91 6.91 0 00.1 1.14c.06.35.14.75.23 1.18l-3.22.61a1.52 1.52 0 01-1.78-1.18 8.46 8.46 0 01-.14-1.46 8.19 8.19 0 012.32-6 8.78 8.78 0 016.52-2.33 9.22 9.22 0 016.85 2.47 9.56 9.56 0 012.45 7 13 13 0 01-1.16 5.6 17.63 17.63 0 01-3.14 4.63 54.192 54.192 0 01-3.91 3.75 1.51 1.51 0 00-.53 1.15v2.27a1.53 1.53 0 01-1.53 1.53h-1.37a1.52 1.52 0 01-1.52-1.48zm-.23 9.4v-2a1.52 1.52 0 011.52-1.53h1.9a1.52 1.52 0 011.53 1.53v2a1.52 1.52 0 01-1.53 1.52h-1.9a1.52 1.52 0 01-1.52-1.49z" transform="translate(-190.55 -460.78)"/></g></svg>