<?xml version="1.0" encoding="utf-8"?><svg id="kСлой_3" data-name="Слой 3" xmlns="http://www.w3.org/2000/svg" viewBox="0 0 80.31 65.34" width="80.31" height="65.34"><defs><style>.kcls-1{fill:#444}</style></defs><g id="kсортировка"><path class="kcls-1" d="M134.6 663.76a2.84 2.84 0 01-2.83-2.84v-59.67a2.84 2.84 0 015.67 0v59.67a2.84 2.84 0 01-2.84 2.84z" transform="translate(-72.56 -598.42)"/><path class="kcls-1" d="M134.6 663.76a2.81 2.81 0 01-2.06-.9l-15.43-16.41a2.84 2.84 0 114.13-3.89L136.67 659a2.83 2.83 0 01-2.07 4.78z" transform="translate(-72.56 -598.42)"/><path class="kcls-1" d="M134.6 663.76a2.83 2.83 0 01-2.06-4.78L148 642.56a2.84 2.84 0 014.13 3.89l-15.43 16.41a2.81 2.81 0 01-2.1.9zM112.66 663.76H75.4a2.84 2.84 0 110-5.67h37.26a2.84 2.84 0 010 5.67zM104.8 651.82H75.4a2.84 2.84 0 110-5.67h29.4a2.84 2.84 0 110 5.67zM99.13 639.89H75.4a2.84 2.84 0 110-5.67h23.73a2.84 2.84 0 110 5.67zM92.8 628H75.4a2.84 2.84 0 110-5.67h17.4a2.84 2.84 0 110 5.67zM87.26 616H75.4a2.84 2.84 0 110-5.67h11.86a2.84 2.84 0 110 5.67zM82.78 604.09H75.4a2.84 2.84 0 110-5.67h7.38a2.84 2.84 0 010 5.67z" transform="translate(-72.56 -598.42)"/></g></svg>