<?xml version="1.0" encoding="utf-8"?><svg id="nСлой_3" data-name="Слой 3" xmlns="http://www.w3.org/2000/svg" viewBox="0 0 70.88 80.32" width="70.88" height="80.32"><defs><style>.ncls-1{fill:#444}</style></defs><g id="nличный_кабинет" data-name="личный кабинет"><path class="ncls-1" d="M230.83 112.84a27.62 27.62 0 1127.62-27.61 27.65 27.65 0 01-27.62 27.61zm0-49.56a21.95 21.95 0 1021.95 22 22 22 0 00-21.95-22z" transform="translate(-195.4 -57.61)"/><path class="ncls-1" d="M198.23 137.93a2.88 2.88 0 01-1-.19 2.84 2.84 0 01-1.61-3.68c6.28-16 19.81-26.53 34.48-26.88 15.31-.36 29.45 10.19 36 26.88a2.84 2.84 0 11-5.28 2.08c-5.68-14.45-17.67-23.57-30.6-23.29-12.38.29-23.89 9.43-29.33 23.28a2.84 2.84 0 01-2.66 1.8z" transform="translate(-195.4 -57.61)"/><path class="ncls-1" d="M230.83 122.51h-.58a19.65 19.65 0 01-14.76-7.82 2.83 2.83 0 114.57-3.35 14.1 14.1 0 0010.37 5.51c6.92.23 11-5.28 11.18-5.51a2.84 2.84 0 014.58 3.35c-.6.8-6.01 7.82-15.36 7.82z" transform="translate(-195.4 -57.61)"/></g></svg>