<?xml version="1.0" encoding="utf-8"?><svg viewBox="0 0 512 512" xmlns="http://www.w3.org/2000/svg" xmlns:xlink="http://www.w3.org/1999/xlink"><style>:root>svg{display:none}:root>svg:target{display:block}</style><svg fill="none" viewBox="0 0 16 31" id="arrow" xmlns="http://www.w3.org/2000/svg"><path d="M14 15.209L2.715 3M14 15.937L2.715 28.146"/></svg><svg id="basket" data-name="Слой 3" viewBox="0 0 78.78 75.69" xmlns="http://www.w3.org/2000/svg"><defs><style>.bcls-1{fill:#444}</style></defs><g id="bкорзина"><path class="bcls-1" d="M428.14 68.48h-12.92a2.84 2.84 0 110-5.67h12.92a2.84 2.84 0 110 5.67zM481.28 117.63h-42a2.84 2.84 0 010-5.67h42a2.84 2.84 0 110 5.67zM488.33 85.19h-49.08a2.84 2.84 0 010-5.67h49.08a2.84 2.84 0 110 5.67z" transform="translate(-412.38 -62.81)"/><path class="bcls-1" d="M438.82 117.63a2.85 2.85 0 01-2.77-2.24l-10.68-49.14a2.84 2.84 0 115.54-1.25l10.68 49.15a2.82 2.82 0 01-2.16 3.37 3.26 3.26 0 01-.61.11zM481.28 117.63a3.07 3.07 0 01-.6-.07 2.83 2.83 0 01-2.17-3.37l7.05-32.44A2.83 2.83 0 11491.1 83l-7.05 32.44a2.84 2.84 0 01-2.77 2.19zM441.82 138.5a9.92 9.92 0 119.92-9.92 9.93 9.93 0 01-9.92 9.92zm0-14.17a4.25 4.25 0 104.25 4.25 4.26 4.26 0 00-4.25-4.25zM477.72 138.5a9.92 9.92 0 119.92-9.92 9.94 9.94 0 01-9.92 9.92zm0-14.17a4.25 4.25 0 104.25 4.25 4.26 4.26 0 00-4.25-4.25z" transform="translate(-412.38 -62.81)"/></g></svg><svg data-name="Слой 3" viewBox="0 0 53.55 78.72" id="geo" xmlns="http://www.w3.org/2000/svg"><path class="ccls-1" d="M50.7 29.1a2.83 2.83 0 01-2.83-2.77A21.23 21.23 0 0026.76 5.67h-.05A21.26 21.26 0 005.66 26.33a2.8 2.8 0 01-2.89 2.77A2.84 2.84 0 010 26.2 27 27 0 0126.69 0h.07a26.94 26.94 0 0126.77 26.21 2.84 2.84 0 01-2.77 2.9z"/><path class="ccls-1" d="M26.82 78.73a2.79 2.79 0 01-1.94-.78C9.77 63.7 1.22 47.48.16 31.06.05 29.45.02 27.82.05 26.2a2.84 2.84 0 012.84-2.77h.02a2.82 2.82 0 012.77 2.89c0 1.46 0 2.93.1 4.37 1 15 8.9 29.89 22.95 43.14a2.83 2.83 0 01.11 4 2.8 2.8 0 01-2.02.9z"/><path class="ccls-1" d="M26.77 78.73a2.84 2.84 0 01-1.95-4.9c14-13.25 22-28.17 22.95-43.14.1-1.45.13-2.92.1-4.37a2.83 2.83 0 115.66-.12c0 1.61 0 3.24-.1 4.86-1.07 16.42-9.61 32.64-24.72 46.89a2.82 2.82 0 01-1.94.78z"/><circle class="ccls-1" cx="26.77" cy="27.02" r="6.18"/></svg><svg data-name="Слой 3" viewBox="0 0 77.98 73.94" id="heart" xmlns="http://www.w3.org/2000/svg"><path class="dcls-1" d="M38.98 73.94a2.82 2.82 0 01-1.49-.43 93.28 93.28 0 01-15.11-11.7c-8.15-7.78-25.11-24-22-42.47C1 15.64 3.31 6.56 11.27 2.28 20.17-2.51 32.41.42 41.04 9.4a2.84 2.84 0 11-4.09 3.93c-6.87-7.15-16.33-9.64-23-6.06-5.75 3.09-7.49 10.13-8 13C3.35 35.81 18.84 50.6 26.29 57.7a87.36 87.36 0 0014.18 11 2.84 2.84 0 01-1.5 5.25z"/><path class="dcls-1" d="M38.99 73.94a2.84 2.84 0 01-1.5-5.25 87.36 87.36 0 0014.18-11c7.45-7.1 22.94-21.89 20.34-37.43-.49-2.88-2.23-9.92-8-13-6.67-3.58-16.13-1.09-23 6.06a2.84 2.84 0 01-4.09-3.93c8.63-9 20.87-11.91 29.77-7.12 8 4.28 10.27 13.36 10.89 17.06 3.1 18.51-13.86 34.69-22 42.47a93.28 93.28 0 01-15.11 11.7 2.82 2.82 0 01-1.48.44z"/></svg><svg id="help" data-name="Слой 3" viewBox="0 0 77.61 77.61" xmlns="http://www.w3.org/2000/svg"><defs><style>.ecls-1{fill:#444}</style></defs><g id="eпомощь"><path class="ecls-1" d="M229.35 538.39a38.81 38.81 0 1138.81-38.8 38.84 38.84 0 01-38.81 38.8zm0-71.94a33.14 33.14 0 1033.14 33.14 33.17 33.17 0 00-33.14-33.14z" transform="translate(-190.55 -460.78)"/><path class="ecls-1" d="M225.28 507.57V504a1.52 1.52 0 01.51-1.13q2-1.82 3.68-3.62a18 18 0 003-4.31 11.09 11.09 0 001.11-5 5.68 5.68 0 00-1.13-3.61 4 4 0 00-3.31-1.43 4 4 0 00-2.94 1.06 3.68 3.68 0 00-1.09 2.73 6.91 6.91 0 00.1 1.14c.06.35.14.75.23 1.18l-3.22.61a1.52 1.52 0 01-1.78-1.18 8.46 8.46 0 01-.14-1.46 8.19 8.19 0 012.32-6 8.78 8.78 0 016.52-2.33 9.22 9.22 0 016.85 2.47 9.56 9.56 0 012.45 7 13 13 0 01-1.16 5.6 17.63 17.63 0 01-3.14 4.63 54.192 54.192 0 01-3.91 3.75 1.51 1.51 0 00-.53 1.15v2.27a1.53 1.53 0 01-1.53 1.53h-1.37a1.52 1.52 0 01-1.52-1.48zm-.23 9.4v-2a1.52 1.52 0 011.52-1.53h1.9a1.52 1.52 0 011.53 1.53v2a1.52 1.52 0 01-1.53 1.52h-1.9a1.52 1.52 0 01-1.52-1.49z" transform="translate(-190.55 -460.78)"/></g></svg><svg id="info" data-name="Слой 3" viewBox="0 0 80.83 67.32" xmlns="http://www.w3.org/2000/svg"><defs><style>.fcls-1{fill:#444}.fcls-2{fill:none;stroke:#444;stroke-linecap:round;stroke-miterlimit:10;stroke-width:5.67px}</style></defs><g id="fинфо"><path class="fcls-1" d="M317.53 539.57l-1-.05a3.3 3.3 0 01-3.18-3.53v-3.64l.07-5.27H310a10.07 10.07 0 01-6.76-2.8 9.72 9.72 0 01-2.37-3.93 9.34 9.34 0 01-.43-2.83v-35.41a9.57 9.57 0 019.56-9.56h61.71a9.57 9.57 0 019.56 9.56v35.61a10 10 0 01-9.35 9.35h-37.46l-11.37 8.37-.62.46-1.89 1.4zm-1.24-18.16h2.88l-.14 10h.06l13.51-9.94h39a4.47 4.47 0 002.59-1.13 4.55 4.55 0 001.41-2.88v-35.35a3.89 3.89 0 00-3.89-3.89H310a3.89 3.89 0 00-3.89 3.89v35.41a3.84 3.84 0 001.14 2.75 4.28 4.28 0 002.83 1.14z" transform="translate(-300.44 -472.55)"/><path class="fcls-2" d="M15.75 51.69v12.79M33.02 51.69L15.75 64.48"/><path class="fcls-1" d="M338.38 484.35v-.23a2.48 2.48 0 012.47-2.47 2.48 2.48 0 012.48 2.47v.23a2.48 2.48 0 01-2.48 2.48 2.48 2.48 0 01-2.47-2.48zm0 30.71v-21.78a2.48 2.48 0 012.47-2.48 2.48 2.48 0 012.48 2.48v21.78a2.48 2.48 0 01-2.48 2.47 2.48 2.48 0 01-2.47-2.47z" transform="translate(-300.44 -472.55)"/></g></svg><svg id="inst" data-name="Слой 3" viewBox="0 0 80.76 80.76" xmlns="http://www.w3.org/2000/svg"><defs><style>.gcls-1{fill:#444}</style></defs><g id="gинста"><path class="gcls-1" d="M257.9 270.71h-56.63a12.08 12.08 0 01-12.07-12.07V202a12.08 12.08 0 0112.07-12h56.63a12.08 12.08 0 0112.1 12v56.63a12.08 12.08 0 01-12.1 12.08zm-56.63-75.09a6.4 6.4 0 00-6.4 6.39v56.63a6.41 6.41 0 006.4 6.4h56.63a6.41 6.41 0 006.4-6.4V202a6.4 6.4 0 00-6.4-6.39z" transform="translate(-189.2 -189.95)"/><path class="gcls-1" d="M228.33 252.64a22.31 22.31 0 1122.31-22.31 22.33 22.33 0 01-22.31 22.31zm0-38.95A16.64 16.64 0 10245 230.33a16.66 16.66 0 00-16.67-16.64z" transform="translate(-189.2 -189.95)"/><circle class="gcls-1" cx="64.26" cy="16.62" r="4.29"/></g></svg><svg id="mail" data-name="Слой 3" viewBox="0 0 80.83 54.53" xmlns="http://www.w3.org/2000/svg"><defs><style>.hcls-1{fill:#444}</style></defs><g id="hпочта"><path class="hcls-1" d="M143.7 393.36H82a9.57 9.57 0 01-9.56-9.56v-35.4a9.57 9.57 0 019.56-9.56h61.7a9.56 9.56 0 019.56 9.56v35.4a9.57 9.57 0 01-9.56 9.56zM82 344.5a3.9 3.9 0 00-3.89 3.9v35.4a3.89 3.89 0 003.89 3.89h61.7a3.9 3.9 0 003.9-3.89v-35.4a3.91 3.91 0 00-3.9-3.9z" transform="translate(-72.43 -338.84)"/><path class="hcls-1" d="M111.66 368.93a2.76 2.76 0 01-1.53-.45L75.5 346.25a2.83 2.83 0 113.06-4.77l34.63 22.23a2.84 2.84 0 01-1.53 5.22z" transform="translate(-72.43 -338.84)"/><path class="hcls-1" d="M112.85 368.93a2.83 2.83 0 01-1.53-5.22L146 341.48a2.83 2.83 0 013.06 4.77l-34.63 22.23a2.8 2.8 0 01-1.58.45z" transform="translate(-72.43 -338.84)"/></g></svg><svg id="phone" data-name="Слой 3" viewBox="0 0 78.68 78.68" xmlns="http://www.w3.org/2000/svg"><defs><style>.icls-1{fill:#444}</style></defs><g id="iтелефон"><path class="icls-1" d="M250.19 404.44a2.64 2.64 0 01-.87-.14 91.44 91.44 0 01-59.17-59.17 2.83 2.83 0 115.39-1.74 85.81 85.81 0 0055.52 55.52 2.83 2.83 0 01-.87 5.53z" transform="translate(-190.01 -325.76)"/><path class="icls-1" d="M237.85 383a2.82 2.82 0 01-1.47-.41 72.53 72.53 0 01-24.48-24.48 2.84 2.84 0 014.85-2.94 66.94 66.94 0 0022.57 22.57 2.83 2.83 0 01-1.47 5.26zM225.42 348.34a2.82 2.82 0 01-2-.83l-16.91-16.91a2.84 2.84 0 014-4l16.9 16.91a2.84 2.84 0 01-2 4.84zM265.86 388.77a2.81 2.81 0 01-2-.83L246.94 371a2.84 2.84 0 114-4l16.91 16.91a2.83 2.83 0 01-2 4.83z" transform="translate(-190.01 -325.76)"/><path class="icls-1" d="M237.85 383a2.79 2.79 0 01-2-.83 2.83 2.83 0 010-4L246.94 367a2.84 2.84 0 114 4l-11.09 11.09a2.81 2.81 0 01-2 .91zM214.32 359.43a2.83 2.83 0 01-2-4.83l11.1-11.1a2.83 2.83 0 114 4l-11.09 11.1a2.81 2.81 0 01-2.01.83zM192.85 347.09a2.83 2.83 0 01-2-4.83l15.67-15.67a2.84 2.84 0 014 4l-15.67 15.66a2.79 2.79 0 01-2 .84zM250.19 404.44a2.84 2.84 0 01-2-4.84l15.66-15.66a2.83 2.83 0 014 4l-15.65 15.67a2.86 2.86 0 01-2.01.83z" transform="translate(-190.01 -325.76)"/></g></svg><svg id="prod" data-name="Слой 3" viewBox="0 0 42.06 81.55" xmlns="http://www.w3.org/2000/svg"><defs><style>.jcls-1{fill:#444}</style></defs><g id="jтовары"><path class="jcls-1" d="M130.85 490.48h-36.4a2.84 2.84 0 010-5.67h36.4a2.84 2.84 0 010 5.67zM121.94 478.22h-18.59a2.84 2.84 0 010-5.67h18.59a2.84 2.84 0 110 5.67zM121.94 539.74h-18.59a2.84 2.84 0 010-5.67h18.59a2.84 2.84 0 110 5.67z" transform="translate(-91.62 -458.19)"/><path class="jcls-1" d="M106.62 478.22a2.84 2.84 0 01-2.84-2.84v-8a2.84 2.84 0 015.67 0v8a2.84 2.84 0 01-2.83 2.84z" transform="translate(-91.62 -458.19)"/><path class="jcls-1" d="M103.35 490.48a2.83 2.83 0 01-2.83-2.83v-12.27a2.84 2.84 0 015.67 0v12.27a2.84 2.84 0 01-2.84 2.83zM121.94 490.48a2.83 2.83 0 01-2.83-2.83v-12.27a2.84 2.84 0 015.67 0v12.27a2.84 2.84 0 01-2.84 2.83zM130.85 530.14a2.84 2.84 0 01-2.84-2.83v-39.66a2.84 2.84 0 115.67 0v39.66a2.83 2.83 0 01-2.83 2.83zM94.45 530.14a2.83 2.83 0 01-2.83-2.83v-39.66a2.84 2.84 0 115.67 0v39.66a2.84 2.84 0 01-2.84 2.83z" transform="translate(-91.62 -458.19)"/><path class="jcls-1" d="M118.88 478.22a2.84 2.84 0 01-2.84-2.84v-8a2.84 2.84 0 015.67 0v8a2.84 2.84 0 01-2.83 2.84z" transform="translate(-91.62 -458.19)"/><path class="jcls-1" d="M118.88 470.21a2.85 2.85 0 01-2.52-1.53 7.48 7.48 0 00-1.36-1.87c-1.87-1.86-4.43-2.25-7.13-2.67a25.68 25.68 0 00-6.14-.17 2.84 2.84 0 01-.52-5.65 31 31 0 017.52.22c3.15.48 7.08 1.08 10.27 4.25a13.45 13.45 0 012.4 3.28 2.84 2.84 0 01-1.22 3.82 2.75 2.75 0 01-1.3.32z" transform="translate(-91.62 -458.19)"/><path class="jcls-1" d="M106.62 470.21a2.82 2.82 0 01-2.19-1L99.29 463a2.83 2.83 0 114.37-3.61l5.14 6.23a2.84 2.84 0 01-2.18 4.64zM103.35 539.74h-.29a12.75 12.75 0 01-7.75-3.74 13 13 0 01-3.69-8.64 2.83 2.83 0 115.66-.16 7.39 7.39 0 002 4.81 7.25 7.25 0 004.31 2 2.84 2.84 0 01-.29 5.66zM121.94 539.74a2.84 2.84 0 01-.28-5.66 7.25 7.25 0 004.31-2 7.36 7.36 0 002-4.81 2.84 2.84 0 115.67.16A13 13 0 01130 536a12.79 12.79 0 01-7.76 3.69z" transform="translate(-91.62 -458.19)"/></g></svg><svg id="search" data-name="Слой 3" viewBox="0 0 80.31 80.31" xmlns="http://www.w3.org/2000/svg"><defs><style>.kcls-1{fill:#444}</style></defs><g id="kпоиск"><path class="kcls-1" d="M123.27 117.56a29.8 29.8 0 1129.8-29.8 29.84 29.84 0 01-29.8 29.8zm0-53.93a24.13 24.13 0 1024.13 24.13 24.16 24.16 0 00-24.13-24.13z" transform="translate(-72.76 -57.96)"/><path class="kcls-1" d="M75.6 138.27a2.84 2.84 0 01-2-4.84l28.16-28.15a2.83 2.83 0 014 4L77.6 137.44a2.83 2.83 0 01-2 .83z" transform="translate(-72.76 -57.96)"/></g></svg><svg id="sort" data-name="Слой 3" viewBox="0 0 80.31 65.34" xmlns="http://www.w3.org/2000/svg"><defs><style>.lcls-1{fill:#444}</style></defs><g id="lсортировка"><path class="lcls-1" d="M134.6 663.76a2.84 2.84 0 01-2.83-2.84v-59.67a2.84 2.84 0 015.67 0v59.67a2.84 2.84 0 01-2.84 2.84z" transform="translate(-72.56 -598.42)"/><path class="lcls-1" d="M134.6 663.76a2.81 2.81 0 01-2.06-.9l-15.43-16.41a2.84 2.84 0 114.13-3.89L136.67 659a2.83 2.83 0 01-2.07 4.78z" transform="translate(-72.56 -598.42)"/><path class="lcls-1" d="M134.6 663.76a2.83 2.83 0 01-2.06-4.78L148 642.56a2.84 2.84 0 014.13 3.89l-15.43 16.41a2.81 2.81 0 01-2.1.9zM112.66 663.76H75.4a2.84 2.84 0 110-5.67h37.26a2.84 2.84 0 010 5.67zM104.8 651.82H75.4a2.84 2.84 0 110-5.67h29.4a2.84 2.84 0 110 5.67zM99.13 639.89H75.4a2.84 2.84 0 110-5.67h23.73a2.84 2.84 0 110 5.67zM92.8 628H75.4a2.84 2.84 0 110-5.67h17.4a2.84 2.84 0 110 5.67zM87.26 616H75.4a2.84 2.84 0 110-5.67h11.86a2.84 2.84 0 110 5.67zM82.78 604.09H75.4a2.84 2.84 0 110-5.67h7.38a2.84 2.84 0 010 5.67z" transform="translate(-72.56 -598.42)"/></g></svg><svg viewBox="0 0 512 512" id="star" xmlns="http://www.w3.org/2000/svg"><path d="M512 198.525l-176.89-25.704L256 12.53l-79.108 160.291L0 198.525l128 124.769L97.784 499.47 256 416.291l158.216 83.179-30.217-176.176L512 198.525z"/></svg><svg id="user" data-name="Слой 3" viewBox="0 0 70.88 80.32" xmlns="http://www.w3.org/2000/svg"><defs><style>.ncls-1{fill:#444}</style></defs><g id="nличный_кабинет" data-name="личный кабинет"><path class="ncls-1" d="M230.83 112.84a27.62 27.62 0 1127.62-27.61 27.65 27.65 0 01-27.62 27.61zm0-49.56a21.95 21.95 0 1021.95 22 22 22 0 00-21.95-22z" transform="translate(-195.4 -57.61)"/><path class="ncls-1" d="M198.23 137.93a2.88 2.88 0 01-1-.19 2.84 2.84 0 01-1.61-3.68c6.28-16 19.81-26.53 34.48-26.88 15.31-.36 29.45 10.19 36 26.88a2.84 2.84 0 11-5.28 2.08c-5.68-14.45-17.67-23.57-30.6-23.29-12.38.29-23.89 9.43-29.33 23.28a2.84 2.84 0 01-2.66 1.8z" transform="translate(-195.4 -57.61)"/><path class="ncls-1" d="M230.83 122.51h-.58a19.65 19.65 0 01-14.76-7.82 2.83 2.83 0 114.57-3.35 14.1 14.1 0 0010.37 5.51c6.92.23 11-5.28 11.18-5.51a2.84 2.84 0 014.58 3.35c-.6.8-6.01 7.82-15.36 7.82z" transform="translate(-195.4 -57.61)"/></g></svg><svg viewBox="0 0 80.83 80.83" id="vk" xmlns="http://www.w3.org/2000/svg"><path class="ocls-1" d="M68.77 80.83h-56.7A12.08 12.08 0 010 68.76V12.05a12.08 12.08 0 0112.07-12h56.7a12.07 12.07 0 0112.06 12v56.7a12.08 12.08 0 01-12.06 12.08zM12.07 5.67a6.4 6.4 0 00-6.4 6.38v56.7a6.41 6.41 0 006.4 6.4h56.7a6.41 6.41 0 006.4-6.4v-56.7a6.4 6.4 0 00-6.4-6.39z"/><path class="ocls-1" d="M42.68 55.27h-7.32a1.4 1.4 0 01-1.4-1.4V29.71a2.21 2.21 0 00-.29-1.2c-.59-1-1.76-.91-2.39-1.93a2.31 2.31 0 01-.34-1h11.72a1.4 1.4 0 011.4 1.4v26.89a1.4 1.4 0 01-1.38 1.4z"/><path class="ocls-1" d="M43.37 51.27l-6.84 4h-3.1a58 58 0 01-20.57-28.69h9.25a41.34 41.34 0 0021.26 24.69zM44.08 40.42v8.39a18.63 18.63 0 018.16 2.2 18.35 18.35 0 015.28 4.26h10.46a24 24 0 00-3.6-5.33 24.63 24.63 0 00-9.31-6.47 27.1 27.1 0 0010-16.89h-9.25a21.51 21.51 0 01-8.15 11.91 18.42 18.42 0 01-3.59 1.93z"/></svg><svg id="youtube" data-name="Слой 3" viewBox="0 0 69.89 81.1" xmlns="http://www.w3.org/2000/svg"><defs><style>.pcls-1{fill:#444}</style></defs><g id="pютуб"><path class="pcls-1" d="M323.74 220.14v-10.62l-6.49-19.46h3.89l4.61 14.52 4.53-14.52h3.93l-6.46 19.46v10.62zM341.83 220.43a6.42 6.42 0 01-3.75-1 5.17 5.17 0 01-1.95-2.75 13.53 13.53 0 01-.58-4.2v-6.23a13.53 13.53 0 01.58-4.2 5.17 5.17 0 011.95-2.75 7.77 7.77 0 017.48 0 5.3 5.3 0 011.93 2.75 13.85 13.85 0 01.57 4.2v6.23a13.85 13.85 0 01-.57 4.2 5.3 5.3 0 01-1.93 2.75 6.38 6.38 0 01-3.73 1zm0-2.93a1.82 1.82 0 001.61-.67 3.53 3.53 0 00.56-1.76c.06-.73.09-1.49.09-2.29v-6.72c0-.81 0-1.58-.09-2.3a3.59 3.59 0 00-.56-1.76 1.8 1.8 0 00-1.61-.69 1.86 1.86 0 00-1.64.69 3.5 3.5 0 00-.57 1.76c-.07.72-.1 1.49-.1 2.3v6.72c0 .8 0 1.56.1 2.29a3.43 3.43 0 00.57 1.76 1.88 1.88 0 001.64.67zM354.78 220.43a2.71 2.71 0 01-2-.67 3.57 3.57 0 01-1-1.67 7.84 7.84 0 01-.28-2v-17.42h4v16.19a4 4 0 00.33 1.8 1.38 1.38 0 001.37.65 2.94 2.94 0 001.4-.39 8.71 8.71 0 001.4-.92v-17.33h4v21.47h-4V218a10.4 10.4 0 01-2.36 1.71 6 6 0 01-2.86.72zM365.17 244.91a1.9 1.9 0 00-1.38-.43 2 2 0 00-1.37.41 2.38 2.38 0 00-.64 1.41 16.08 16.08 0 00-.18 2.73v1.08h4.28v-1.81a13.6 13.6 0 00-.14-2.1 2.28 2.28 0 00-.57-1.29z" transform="translate(-305.67 -190.06)"/><path class="pcls-1" d="M366.93 225.16h-52.62a8.64 8.64 0 00-8.64 8.64v28.72a8.64 8.64 0 008.64 8.64h52.62a8.63 8.63 0 008.63-8.64V233.8a8.63 8.63 0 00-8.63-8.64zM325 236.86h-4.6v25.24h-3.93v-25.24h-4.76v-2.92H325zm13.9 25.24h-3.72v-2a9.61 9.61 0 01-2.21 1.6 5.61 5.61 0 01-2.69.66 2.59 2.59 0 01-1.84-.62 3.32 3.32 0 01-.92-1.57 6.82 6.82 0 01-.26-1.91V242H331v15.16a3.67 3.67 0 00.31 1.68 1.3 1.3 0 001.28.61 2.79 2.79 0 001.31-.36 7.89 7.89 0 001.3-.89V242h3.72zm16-8a18.56 18.56 0 01-.42 4 6.38 6.38 0 01-1.49 3.06 4 4 0 01-3.06 1.16 3.53 3.53 0 01-1.93-.54 7.75 7.75 0 01-1.48-1.2v1.46h-3.72v-28.1h3.72v9.67a6.57 6.57 0 011.58-1.32 4.13 4.13 0 012.21-.56 3.61 3.61 0 012.49.82 5 5 0 011.37 2 10.45 10.45 0 01.59 2.5 21.23 21.23 0 01.14 2.17zm14.64-2h-7.94v4a7.17 7.17 0 00.23 2 2 2 0 00.73 1.13 2.18 2.18 0 001.3.37 1.84 1.84 0 001.27-.4 2.07 2.07 0 00.59-1.15 8.32 8.32 0 00.16-1.76v-1.21h3.61v.76a7.89 7.89 0 01-1.28 4.76q-1.29 1.74-4.38 1.74a6.21 6.21 0 01-3.65-.92 4.75 4.75 0 01-1.79-2.71 16.31 16.31 0 01-.51-4.4v-4.59a16.36 16.36 0 01.52-4.45 4.81 4.81 0 011.83-2.68 6.26 6.26 0 013.6-.9 5.59 5.59 0 013.73 1 5.19 5.19 0 011.59 3 25.47 25.47 0 01.38 4.71z" transform="translate(-305.67 -190.06)"/><path class="pcls-1" d="M350.44 245.28a1.64 1.64 0 00-1.43-.63 3.09 3.09 0 00-1.37.31 6.2 6.2 0 00-1.13.7v12.9a4.49 4.49 0 001.17.64 4.13 4.13 0 001.47.26 1.51 1.51 0 001.4-.71 4.78 4.78 0 00.52-1.93c.07-.81.1-1.7.1-2.68v-4.87A18.38 18.38 0 00351 247a3.58 3.58 0 00-.56-1.72z" transform="translate(-305.67 -190.06)"/></g></svg></svg>